<mxfile host="app.diagrams.net" modified="2021-03-22T13:24:33.934Z" agent="5.0 (Windows NT 10.0; WOW64) AppleWebKit/537.36 (KHTML, like Gecko) Chrome/89.0.4389.90 Safari/537.36" etag="eK9TaKdEsnehgHgQ9EO1" version="14.4.9" type="github">
  <diagram id="prtHgNgQTEPvFCAcTncT" name="Page-1">
    <mxGraphModel dx="1240" dy="657" grid="0" gridSize="10" guides="1" tooltips="1" connect="1" arrows="1" fold="1" page="0" pageScale="1" pageWidth="827" pageHeight="1169" background="#ffffff" math="0" shadow="0">
      <root>
        <mxCell id="0" />
        <mxCell id="1" parent="0" />
        <mxCell id="dNxyNK7c78bLwvsdeMH5-19" value="DLP Lifecycle" style="swimlane;html=1;childLayout=stackLayout;resizeParent=1;resizeParentMax=0;horizontal=0;startSize=20;horizontalStack=0;" parent="1" vertex="1">
          <mxGeometry x="107" y="119" width="1106" height="659" as="geometry" />
        </mxCell>
        <mxCell id="C3P9gMJUHR_SiDvHQ9y6-13" style="edgeStyle=orthogonalEdgeStyle;rounded=0;orthogonalLoop=1;jettySize=auto;html=1;entryX=0.5;entryY=1;entryDx=0;entryDy=0;dashed=1;" parent="dNxyNK7c78bLwvsdeMH5-19" source="C3P9gMJUHR_SiDvHQ9y6-10" target="C3P9gMJUHR_SiDvHQ9y6-12" edge="1">
          <mxGeometry relative="1" as="geometry">
            <Array as="points">
              <mxPoint x="447" y="413" />
              <mxPoint x="140" y="413" />
            </Array>
          </mxGeometry>
        </mxCell>
        <mxCell id="dNxyNK7c78bLwvsdeMH5-20" value="User / Requestor" style="swimlane;html=1;startSize=20;horizontal=0;" parent="dNxyNK7c78bLwvsdeMH5-19" vertex="1">
          <mxGeometry x="20" width="1086" height="439" as="geometry" />
        </mxCell>
        <mxCell id="qJOnHF-9vZy9I7U5SdcD-5" style="edgeStyle=orthogonalEdgeStyle;rounded=0;orthogonalLoop=1;jettySize=auto;html=1;entryX=0;entryY=0.5;entryDx=0;entryDy=0;" edge="1" parent="dNxyNK7c78bLwvsdeMH5-20" source="C3P9gMJUHR_SiDvHQ9y6-12" target="qJOnHF-9vZy9I7U5SdcD-1">
          <mxGeometry relative="1" as="geometry" />
        </mxCell>
        <mxCell id="qJOnHF-9vZy9I7U5SdcD-6" style="edgeStyle=orthogonalEdgeStyle;rounded=0;orthogonalLoop=1;jettySize=auto;html=1;entryX=0;entryY=0.5;entryDx=0;entryDy=0;" edge="1" parent="dNxyNK7c78bLwvsdeMH5-20" source="C3P9gMJUHR_SiDvHQ9y6-12" target="qJOnHF-9vZy9I7U5SdcD-3">
          <mxGeometry relative="1" as="geometry" />
        </mxCell>
        <mxCell id="C3P9gMJUHR_SiDvHQ9y6-12" value="User:&lt;br&gt;Renewal or Revoke?" style="rhombus;whiteSpace=wrap;html=1;fillColor=#fff2cc;strokeColor=#d6b656;" parent="dNxyNK7c78bLwvsdeMH5-20" vertex="1">
          <mxGeometry x="80" y="134" width="80" height="80" as="geometry" />
        </mxCell>
        <mxCell id="q47l3kpyKm3Iv4M2ELsL-10" style="edgeStyle=orthogonalEdgeStyle;rounded=0;orthogonalLoop=1;jettySize=auto;html=1;entryX=0;entryY=0.5;entryDx=0;entryDy=0;" parent="dNxyNK7c78bLwvsdeMH5-20" source="q47l3kpyKm3Iv4M2ELsL-6" target="q47l3kpyKm3Iv4M2ELsL-9" edge="1">
          <mxGeometry relative="1" as="geometry" />
        </mxCell>
        <mxCell id="OVxk2ZHWJLEvhyBlayd_-89" style="edgeStyle=orthogonalEdgeStyle;rounded=0;orthogonalLoop=1;jettySize=auto;html=1;entryX=0.5;entryY=0;entryDx=0;entryDy=0;" parent="dNxyNK7c78bLwvsdeMH5-20" source="q47l3kpyKm3Iv4M2ELsL-6" target="OVxk2ZHWJLEvhyBlayd_-88" edge="1">
          <mxGeometry relative="1" as="geometry" />
        </mxCell>
        <mxCell id="q47l3kpyKm3Iv4M2ELsL-6" value="User LM:&lt;br&gt;Renewal Policy/Exception?" style="rhombus;whiteSpace=wrap;html=1;fillColor=#fff2cc;strokeColor=#d6b656;" parent="dNxyNK7c78bLwvsdeMH5-20" vertex="1">
          <mxGeometry x="489" y="13" width="80" height="80" as="geometry" />
        </mxCell>
        <mxCell id="OVxk2ZHWJLEvhyBlayd_-34" style="edgeStyle=orthogonalEdgeStyle;rounded=0;orthogonalLoop=1;jettySize=auto;html=1;entryX=0;entryY=0.5;entryDx=0;entryDy=0;" parent="dNxyNK7c78bLwvsdeMH5-20" source="q47l3kpyKm3Iv4M2ELsL-9" edge="1">
          <mxGeometry relative="1" as="geometry">
            <mxPoint x="696" y="53" as="targetPoint" />
          </mxGeometry>
        </mxCell>
        <mxCell id="q47l3kpyKm3Iv4M2ELsL-9" value="Yes" style="ellipse;whiteSpace=wrap;html=1;aspect=fixed;fillColor=#d5e8d4;strokeColor=#82b366;" parent="dNxyNK7c78bLwvsdeMH5-20" vertex="1">
          <mxGeometry x="612" y="33" width="40" height="40" as="geometry" />
        </mxCell>
        <mxCell id="OVxk2ZHWJLEvhyBlayd_-36" style="edgeStyle=orthogonalEdgeStyle;rounded=0;orthogonalLoop=1;jettySize=auto;html=1;entryX=0;entryY=0.5;entryDx=0;entryDy=0;" parent="dNxyNK7c78bLwvsdeMH5-20" target="OVxk2ZHWJLEvhyBlayd_-35" edge="1">
          <mxGeometry relative="1" as="geometry">
            <mxPoint x="776" y="53" as="sourcePoint" />
          </mxGeometry>
        </mxCell>
        <mxCell id="OVxk2ZHWJLEvhyBlayd_-90" style="edgeStyle=orthogonalEdgeStyle;rounded=0;orthogonalLoop=1;jettySize=auto;html=1;entryX=0.5;entryY=0;entryDx=0;entryDy=0;" parent="dNxyNK7c78bLwvsdeMH5-20" target="OVxk2ZHWJLEvhyBlayd_-63" edge="1">
          <mxGeometry relative="1" as="geometry">
            <mxPoint x="736" y="93" as="sourcePoint" />
          </mxGeometry>
        </mxCell>
        <mxCell id="OVxk2ZHWJLEvhyBlayd_-33" value="RISO:&lt;br&gt;Renewal Policy/Exception?" style="rhombus;whiteSpace=wrap;html=1;fillColor=#fff2cc;strokeColor=#d6b656;" parent="dNxyNK7c78bLwvsdeMH5-20" vertex="1">
          <mxGeometry x="703" y="13" width="80" height="80" as="geometry" />
        </mxCell>
        <mxCell id="OVxk2ZHWJLEvhyBlayd_-35" value="Yes" style="ellipse;whiteSpace=wrap;html=1;aspect=fixed;fillColor=#d5e8d4;strokeColor=#82b366;" parent="dNxyNK7c78bLwvsdeMH5-20" vertex="1">
          <mxGeometry x="817" y="33" width="40" height="40" as="geometry" />
        </mxCell>
        <mxCell id="qJOnHF-9vZy9I7U5SdcD-35" style="edgeStyle=orthogonalEdgeStyle;rounded=0;orthogonalLoop=1;jettySize=auto;html=1;entryX=0.5;entryY=0;entryDx=0;entryDy=0;" edge="1" parent="dNxyNK7c78bLwvsdeMH5-20" source="OVxk2ZHWJLEvhyBlayd_-63" target="qJOnHF-9vZy9I7U5SdcD-12">
          <mxGeometry relative="1" as="geometry">
            <Array as="points">
              <mxPoint x="736" y="180" />
              <mxPoint x="405" y="180" />
            </Array>
          </mxGeometry>
        </mxCell>
        <mxCell id="OVxk2ZHWJLEvhyBlayd_-63" value="No" style="ellipse;whiteSpace=wrap;html=1;aspect=fixed;fillColor=#f8cecc;strokeColor=#b85450;" parent="dNxyNK7c78bLwvsdeMH5-20" vertex="1">
          <mxGeometry x="716" y="109" width="40" height="40" as="geometry" />
        </mxCell>
        <mxCell id="qJOnHF-9vZy9I7U5SdcD-34" style="edgeStyle=orthogonalEdgeStyle;rounded=0;orthogonalLoop=1;jettySize=auto;html=1;entryX=0.5;entryY=0;entryDx=0;entryDy=0;" edge="1" parent="dNxyNK7c78bLwvsdeMH5-20" source="OVxk2ZHWJLEvhyBlayd_-88" target="qJOnHF-9vZy9I7U5SdcD-12">
          <mxGeometry relative="1" as="geometry">
            <Array as="points">
              <mxPoint x="529" y="180" />
              <mxPoint x="405" y="180" />
              <mxPoint x="405" y="293" />
            </Array>
          </mxGeometry>
        </mxCell>
        <mxCell id="OVxk2ZHWJLEvhyBlayd_-88" value="No" style="ellipse;whiteSpace=wrap;html=1;aspect=fixed;fillColor=#f8cecc;strokeColor=#b85450;" parent="dNxyNK7c78bLwvsdeMH5-20" vertex="1">
          <mxGeometry x="509" y="109" width="40" height="40" as="geometry" />
        </mxCell>
        <mxCell id="qJOnHF-9vZy9I7U5SdcD-8" style="edgeStyle=orthogonalEdgeStyle;rounded=0;orthogonalLoop=1;jettySize=auto;html=1;entryX=0;entryY=0.5;entryDx=0;entryDy=0;" edge="1" parent="dNxyNK7c78bLwvsdeMH5-20" source="qJOnHF-9vZy9I7U5SdcD-1" target="qJOnHF-9vZy9I7U5SdcD-7">
          <mxGeometry relative="1" as="geometry" />
        </mxCell>
        <mxCell id="qJOnHF-9vZy9I7U5SdcD-1" value="Renewal Policy/Exception" style="rounded=1;whiteSpace=wrap;html=1;fillColor=#d5e8d4;strokeColor=#82b366;" vertex="1" parent="dNxyNK7c78bLwvsdeMH5-20">
          <mxGeometry x="211" y="33" width="91" height="40" as="geometry" />
        </mxCell>
        <mxCell id="qJOnHF-9vZy9I7U5SdcD-14" style="edgeStyle=orthogonalEdgeStyle;rounded=0;orthogonalLoop=1;jettySize=auto;html=1;entryX=0;entryY=0.5;entryDx=0;entryDy=0;" edge="1" parent="dNxyNK7c78bLwvsdeMH5-20" source="qJOnHF-9vZy9I7U5SdcD-3" target="qJOnHF-9vZy9I7U5SdcD-12">
          <mxGeometry relative="1" as="geometry" />
        </mxCell>
        <mxCell id="qJOnHF-9vZy9I7U5SdcD-3" value="Revoke Policy/Exception" style="rounded=1;whiteSpace=wrap;html=1;fillColor=#f8cecc;strokeColor=#b85450;" vertex="1" parent="dNxyNK7c78bLwvsdeMH5-20">
          <mxGeometry x="211" y="293" width="91" height="40" as="geometry" />
        </mxCell>
        <mxCell id="qJOnHF-9vZy9I7U5SdcD-15" style="edgeStyle=orthogonalEdgeStyle;rounded=0;orthogonalLoop=1;jettySize=auto;html=1;" edge="1" parent="dNxyNK7c78bLwvsdeMH5-20" source="qJOnHF-9vZy9I7U5SdcD-7" target="q47l3kpyKm3Iv4M2ELsL-6">
          <mxGeometry relative="1" as="geometry" />
        </mxCell>
        <mxCell id="qJOnHF-9vZy9I7U5SdcD-7" value="Renewal Request Created" style="rounded=1;whiteSpace=wrap;html=1;fillColor=#dae8fc;strokeColor=#6c8ebf;" vertex="1" parent="dNxyNK7c78bLwvsdeMH5-20">
          <mxGeometry x="348" y="33" width="100" height="40" as="geometry" />
        </mxCell>
        <mxCell id="qJOnHF-9vZy9I7U5SdcD-29" style="edgeStyle=orthogonalEdgeStyle;rounded=0;orthogonalLoop=1;jettySize=auto;html=1;" edge="1" parent="dNxyNK7c78bLwvsdeMH5-20" source="qJOnHF-9vZy9I7U5SdcD-12" target="qJOnHF-9vZy9I7U5SdcD-20">
          <mxGeometry relative="1" as="geometry" />
        </mxCell>
        <mxCell id="qJOnHF-9vZy9I7U5SdcD-12" value="Revoke Request Created" style="rounded=1;whiteSpace=wrap;html=1;fillColor=#dae8fc;strokeColor=#6c8ebf;" vertex="1" parent="dNxyNK7c78bLwvsdeMH5-20">
          <mxGeometry x="355" y="293" width="100" height="40" as="geometry" />
        </mxCell>
        <mxCell id="qJOnHF-9vZy9I7U5SdcD-30" style="edgeStyle=orthogonalEdgeStyle;rounded=0;orthogonalLoop=1;jettySize=auto;html=1;entryX=0.5;entryY=1;entryDx=0;entryDy=0;" edge="1" parent="dNxyNK7c78bLwvsdeMH5-20" source="qJOnHF-9vZy9I7U5SdcD-20" target="qJOnHF-9vZy9I7U5SdcD-28">
          <mxGeometry relative="1" as="geometry" />
        </mxCell>
        <mxCell id="qJOnHF-9vZy9I7U5SdcD-20" value="User LM:&lt;br&gt;Revoke Policy/Exception?" style="rhombus;whiteSpace=wrap;html=1;fillColor=#fff2cc;strokeColor=#d6b656;" vertex="1" parent="dNxyNK7c78bLwvsdeMH5-20">
          <mxGeometry x="493" y="273" width="80" height="80" as="geometry" />
        </mxCell>
        <mxCell id="qJOnHF-9vZy9I7U5SdcD-22" value="Yes" style="ellipse;whiteSpace=wrap;html=1;aspect=fixed;fillColor=#d5e8d4;strokeColor=#82b366;" vertex="1" parent="dNxyNK7c78bLwvsdeMH5-20">
          <mxGeometry x="616" y="293" width="40" height="40" as="geometry" />
        </mxCell>
        <mxCell id="qJOnHF-9vZy9I7U5SdcD-18" style="edgeStyle=orthogonalEdgeStyle;rounded=0;orthogonalLoop=1;jettySize=auto;html=1;entryX=0;entryY=0.5;entryDx=0;entryDy=0;" edge="1" parent="dNxyNK7c78bLwvsdeMH5-20" source="qJOnHF-9vZy9I7U5SdcD-20" target="qJOnHF-9vZy9I7U5SdcD-22">
          <mxGeometry relative="1" as="geometry" />
        </mxCell>
        <mxCell id="qJOnHF-9vZy9I7U5SdcD-31" style="edgeStyle=orthogonalEdgeStyle;rounded=0;orthogonalLoop=1;jettySize=auto;html=1;entryX=0.5;entryY=1;entryDx=0;entryDy=0;" edge="1" parent="dNxyNK7c78bLwvsdeMH5-20" source="qJOnHF-9vZy9I7U5SdcD-25" target="qJOnHF-9vZy9I7U5SdcD-27">
          <mxGeometry relative="1" as="geometry" />
        </mxCell>
        <mxCell id="qJOnHF-9vZy9I7U5SdcD-25" value="RISO:&lt;br&gt;Revoke Policy/Exception?" style="rhombus;whiteSpace=wrap;html=1;fillColor=#fff2cc;strokeColor=#d6b656;" vertex="1" parent="dNxyNK7c78bLwvsdeMH5-20">
          <mxGeometry x="696" y="273" width="80" height="80" as="geometry" />
        </mxCell>
        <mxCell id="qJOnHF-9vZy9I7U5SdcD-21" style="edgeStyle=orthogonalEdgeStyle;rounded=0;orthogonalLoop=1;jettySize=auto;html=1;entryX=0;entryY=0.5;entryDx=0;entryDy=0;" edge="1" parent="dNxyNK7c78bLwvsdeMH5-20" source="qJOnHF-9vZy9I7U5SdcD-22">
          <mxGeometry relative="1" as="geometry">
            <mxPoint x="700" y="313" as="targetPoint" />
          </mxGeometry>
        </mxCell>
        <mxCell id="qJOnHF-9vZy9I7U5SdcD-26" value="Yes" style="ellipse;whiteSpace=wrap;html=1;aspect=fixed;fillColor=#d5e8d4;strokeColor=#82b366;" vertex="1" parent="dNxyNK7c78bLwvsdeMH5-20">
          <mxGeometry x="821" y="293" width="40" height="40" as="geometry" />
        </mxCell>
        <mxCell id="qJOnHF-9vZy9I7U5SdcD-23" style="edgeStyle=orthogonalEdgeStyle;rounded=0;orthogonalLoop=1;jettySize=auto;html=1;entryX=0;entryY=0.5;entryDx=0;entryDy=0;" edge="1" parent="dNxyNK7c78bLwvsdeMH5-20" target="qJOnHF-9vZy9I7U5SdcD-26">
          <mxGeometry relative="1" as="geometry">
            <mxPoint x="780" y="313" as="sourcePoint" />
          </mxGeometry>
        </mxCell>
        <mxCell id="qJOnHF-9vZy9I7U5SdcD-33" style="edgeStyle=orthogonalEdgeStyle;rounded=0;orthogonalLoop=1;jettySize=auto;html=1;entryX=0.5;entryY=1;entryDx=0;entryDy=0;" edge="1" parent="dNxyNK7c78bLwvsdeMH5-20" source="qJOnHF-9vZy9I7U5SdcD-27" target="qJOnHF-9vZy9I7U5SdcD-7">
          <mxGeometry relative="1" as="geometry">
            <Array as="points">
              <mxPoint x="736" y="201" />
              <mxPoint x="398" y="201" />
            </Array>
          </mxGeometry>
        </mxCell>
        <mxCell id="qJOnHF-9vZy9I7U5SdcD-27" value="No" style="ellipse;whiteSpace=wrap;html=1;aspect=fixed;fillColor=#f8cecc;strokeColor=#b85450;" vertex="1" parent="dNxyNK7c78bLwvsdeMH5-20">
          <mxGeometry x="716" y="214" width="40" height="40" as="geometry" />
        </mxCell>
        <mxCell id="qJOnHF-9vZy9I7U5SdcD-32" style="edgeStyle=orthogonalEdgeStyle;rounded=0;orthogonalLoop=1;jettySize=auto;html=1;" edge="1" parent="dNxyNK7c78bLwvsdeMH5-20" source="qJOnHF-9vZy9I7U5SdcD-28" target="qJOnHF-9vZy9I7U5SdcD-7">
          <mxGeometry relative="1" as="geometry">
            <Array as="points">
              <mxPoint x="529" y="201" />
              <mxPoint x="398" y="201" />
            </Array>
          </mxGeometry>
        </mxCell>
        <mxCell id="qJOnHF-9vZy9I7U5SdcD-28" value="No" style="ellipse;whiteSpace=wrap;html=1;aspect=fixed;fillColor=#f8cecc;strokeColor=#b85450;" vertex="1" parent="dNxyNK7c78bLwvsdeMH5-20">
          <mxGeometry x="513" y="218" width="40" height="40" as="geometry" />
        </mxCell>
        <mxCell id="dNxyNK7c78bLwvsdeMH5-21" value="SNOW" style="swimlane;html=1;startSize=20;horizontal=0;" parent="dNxyNK7c78bLwvsdeMH5-19" vertex="1">
          <mxGeometry x="20" y="439" width="1086" height="220" as="geometry" />
        </mxCell>
        <mxCell id="C3P9gMJUHR_SiDvHQ9y6-7" style="edgeStyle=orthogonalEdgeStyle;rounded=0;orthogonalLoop=1;jettySize=auto;html=1;entryX=0;entryY=0.5;entryDx=0;entryDy=0;" parent="dNxyNK7c78bLwvsdeMH5-21" source="C3P9gMJUHR_SiDvHQ9y6-2" target="C3P9gMJUHR_SiDvHQ9y6-3" edge="1">
          <mxGeometry relative="1" as="geometry" />
        </mxCell>
        <mxCell id="C3P9gMJUHR_SiDvHQ9y6-8" style="edgeStyle=orthogonalEdgeStyle;rounded=0;orthogonalLoop=1;jettySize=auto;html=1;entryX=0;entryY=0.5;entryDx=0;entryDy=0;" parent="dNxyNK7c78bLwvsdeMH5-21" source="C3P9gMJUHR_SiDvHQ9y6-2" target="C3P9gMJUHR_SiDvHQ9y6-6" edge="1">
          <mxGeometry relative="1" as="geometry" />
        </mxCell>
        <mxCell id="C3P9gMJUHR_SiDvHQ9y6-2" value="Policy / Exception creation date triggers the lifecycle process?&amp;nbsp;" style="rounded=1;whiteSpace=wrap;html=1;fillColor=#dae8fc;strokeColor=#6c8ebf;" parent="dNxyNK7c78bLwvsdeMH5-21" vertex="1">
          <mxGeometry x="96.94" y="58" width="140" height="60" as="geometry" />
        </mxCell>
        <mxCell id="C3P9gMJUHR_SiDvHQ9y6-11" style="edgeStyle=orthogonalEdgeStyle;rounded=0;orthogonalLoop=1;jettySize=auto;html=1;entryX=0;entryY=0.5;entryDx=0;entryDy=0;" parent="dNxyNK7c78bLwvsdeMH5-21" source="C3P9gMJUHR_SiDvHQ9y6-3" target="C3P9gMJUHR_SiDvHQ9y6-10" edge="1">
          <mxGeometry relative="1" as="geometry" />
        </mxCell>
        <mxCell id="C3P9gMJUHR_SiDvHQ9y6-3" value="Yes" style="ellipse;whiteSpace=wrap;html=1;aspect=fixed;fillColor=#d5e8d4;strokeColor=#82b366;" parent="dNxyNK7c78bLwvsdeMH5-21" vertex="1">
          <mxGeometry x="280.94" y="43" width="40" height="40" as="geometry" />
        </mxCell>
        <mxCell id="C3P9gMJUHR_SiDvHQ9y6-9" style="edgeStyle=orthogonalEdgeStyle;rounded=0;orthogonalLoop=1;jettySize=auto;html=1;entryX=0.5;entryY=1;entryDx=0;entryDy=0;" parent="dNxyNK7c78bLwvsdeMH5-21" source="C3P9gMJUHR_SiDvHQ9y6-6" target="C3P9gMJUHR_SiDvHQ9y6-2" edge="1">
          <mxGeometry relative="1" as="geometry">
            <Array as="points">
              <mxPoint x="300.94" y="153" />
              <mxPoint x="166.94" y="153" />
            </Array>
          </mxGeometry>
        </mxCell>
        <mxCell id="C3P9gMJUHR_SiDvHQ9y6-6" value="No" style="ellipse;whiteSpace=wrap;html=1;aspect=fixed;fillColor=#f8cecc;strokeColor=#b85450;" parent="dNxyNK7c78bLwvsdeMH5-21" vertex="1">
          <mxGeometry x="280.94" y="93" width="40" height="40" as="geometry" />
        </mxCell>
        <mxCell id="C3P9gMJUHR_SiDvHQ9y6-10" value="Automated Emails to the Policy / Exception owner, LM and/or RISO" style="rounded=1;whiteSpace=wrap;html=1;fillColor=#dae8fc;strokeColor=#6c8ebf;" parent="dNxyNK7c78bLwvsdeMH5-21" vertex="1">
          <mxGeometry x="356.94" y="33" width="140" height="60" as="geometry" />
        </mxCell>
        <mxCell id="qJOnHF-9vZy9I7U5SdcD-40" style="edgeStyle=orthogonalEdgeStyle;rounded=0;orthogonalLoop=1;jettySize=auto;html=1;entryX=0.5;entryY=0;entryDx=0;entryDy=0;" edge="1" parent="dNxyNK7c78bLwvsdeMH5-21" source="C3P9gMJUHR_SiDvHQ9y6-18" target="qJOnHF-9vZy9I7U5SdcD-39">
          <mxGeometry relative="1" as="geometry" />
        </mxCell>
        <mxCell id="C3P9gMJUHR_SiDvHQ9y6-18" value="Renewal the Policy / Exception Revision Date" style="rounded=1;whiteSpace=wrap;html=1;fillColor=#dae8fc;strokeColor=#6c8ebf;" parent="dNxyNK7c78bLwvsdeMH5-21" vertex="1">
          <mxGeometry x="914" y="37" width="140" height="60" as="geometry" />
        </mxCell>
        <mxCell id="qJOnHF-9vZy9I7U5SdcD-45" style="edgeStyle=orthogonalEdgeStyle;rounded=0;orthogonalLoop=1;jettySize=auto;html=1;" edge="1" parent="dNxyNK7c78bLwvsdeMH5-21" source="C3P9gMJUHR_SiDvHQ9y6-21" target="OVxk2ZHWJLEvhyBlayd_-60">
          <mxGeometry relative="1" as="geometry" />
        </mxCell>
        <mxCell id="C3P9gMJUHR_SiDvHQ9y6-21" value="Change Policy / Exception status to Disabled on the Inventory" style="rounded=1;whiteSpace=wrap;html=1;fillColor=#dae8fc;strokeColor=#6c8ebf;" parent="dNxyNK7c78bLwvsdeMH5-21" vertex="1">
          <mxGeometry x="711" y="37" width="140" height="60" as="geometry" />
        </mxCell>
        <mxCell id="q47l3kpyKm3Iv4M2ELsL-2" style="edgeStyle=orthogonalEdgeStyle;rounded=0;orthogonalLoop=1;jettySize=auto;html=1;entryX=0.5;entryY=0;entryDx=0;entryDy=0;" parent="dNxyNK7c78bLwvsdeMH5-21" source="q47l3kpyKm3Iv4M2ELsL-1" target="C3P9gMJUHR_SiDvHQ9y6-2" edge="1">
          <mxGeometry relative="1" as="geometry" />
        </mxCell>
        <mxCell id="q47l3kpyKm3Iv4M2ELsL-1" value="" style="ellipse;whiteSpace=wrap;html=1;aspect=fixed;fillColor=#60a917;strokeColor=#2D7600;fontColor=#ffffff;" parent="dNxyNK7c78bLwvsdeMH5-21" vertex="1">
          <mxGeometry x="152" y="5" width="32" height="32" as="geometry" />
        </mxCell>
        <mxCell id="OVxk2ZHWJLEvhyBlayd_-60" value="Automated task raised to the DLP team." style="rounded=1;whiteSpace=wrap;html=1;fillColor=#dae8fc;strokeColor=#6c8ebf;" parent="dNxyNK7c78bLwvsdeMH5-21" vertex="1">
          <mxGeometry x="711" y="133" width="140" height="60" as="geometry" />
        </mxCell>
        <mxCell id="qJOnHF-9vZy9I7U5SdcD-41" style="edgeStyle=orthogonalEdgeStyle;rounded=0;orthogonalLoop=1;jettySize=auto;html=1;entryX=0;entryY=0.5;entryDx=0;entryDy=0;" edge="1" parent="dNxyNK7c78bLwvsdeMH5-21" source="qJOnHF-9vZy9I7U5SdcD-39" target="C3P9gMJUHR_SiDvHQ9y6-2">
          <mxGeometry relative="1" as="geometry">
            <Array as="points">
              <mxPoint x="984" y="208" />
              <mxPoint x="77" y="208" />
              <mxPoint x="77" y="88" />
            </Array>
          </mxGeometry>
        </mxCell>
        <mxCell id="qJOnHF-9vZy9I7U5SdcD-39" value="Notification for the Global DLP team.&amp;nbsp;" style="rounded=1;whiteSpace=wrap;html=1;fillColor=#dae8fc;strokeColor=#6c8ebf;" vertex="1" parent="dNxyNK7c78bLwvsdeMH5-21">
          <mxGeometry x="914" y="133" width="140" height="60" as="geometry" />
        </mxCell>
        <mxCell id="qJOnHF-9vZy9I7U5SdcD-38" style="edgeStyle=orthogonalEdgeStyle;rounded=0;orthogonalLoop=1;jettySize=auto;html=1;entryX=0.5;entryY=0;entryDx=0;entryDy=0;dashed=1;" edge="1" parent="dNxyNK7c78bLwvsdeMH5-19" source="OVxk2ZHWJLEvhyBlayd_-35" target="C3P9gMJUHR_SiDvHQ9y6-18">
          <mxGeometry relative="1" as="geometry" />
        </mxCell>
        <mxCell id="qJOnHF-9vZy9I7U5SdcD-44" style="edgeStyle=orthogonalEdgeStyle;rounded=0;orthogonalLoop=1;jettySize=auto;html=1;entryX=0.5;entryY=0;entryDx=0;entryDy=0;dashed=1;" edge="1" parent="dNxyNK7c78bLwvsdeMH5-19" source="qJOnHF-9vZy9I7U5SdcD-26" target="C3P9gMJUHR_SiDvHQ9y6-21">
          <mxGeometry relative="1" as="geometry" />
        </mxCell>
      </root>
    </mxGraphModel>
  </diagram>
</mxfile>
